<?xml version="1.0" standalone="no"?>
<!DOCTYPE svg PUBLIC "-//W3C//DTD SVG 20010904//EN"
 "http://www.w3.org/TR/2001/REC-SVG-20010904/DTD/svg10.dtd">
<svg version="1.0" xmlns="http://www.w3.org/2000/svg"
 width="586.000000pt" height="293.000000pt" viewBox="0 0 586.000000 293.000000"
 preserveAspectRatio="xMidYMid meet">

<g transform="translate(0.000000,293.000000) scale(0.100000,-0.100000)"
fill="#000000" stroke="none">
<path d="M0 1465 l0 -1465 900 0 c495 0 900 3 900 6 0 3 -7 12 -16 21 -14 14
-13 18 7 39 13 14 34 24 49 24 14 0 50 16 80 35 30 19 65 35 77 35 12 0 24 4
27 9 4 5 36 21 74 35 37 14 80 37 96 51 16 14 41 25 55 25 15 0 42 11 61 23
43 30 89 50 160 72 30 9 62 23 70 30 13 11 149 51 200 59 24 4 73 17 95 25 66
26 95 34 133 37 24 1 49 7 55 12 17 13 138 41 342 77 55 10 105 22 110 26 6 5
31 11 55 15 25 3 79 15 120 27 41 11 84 19 95 19 11 -1 34 3 50 8 17 5 69 12
118 14 48 3 102 9 120 15 17 5 88 17 157 26 69 10 157 23 195 30 39 8 117 16
175 19 58 4 117 8 133 11 30 6 35 -6 12 -29 -8 -8 -15 -19 -15 -25 0 -14 -23
-14 -37 0 -8 8 -21 8 -48 -1 -20 -7 -48 -10 -61 -7 -13 2 -27 0 -30 -5 -3 -4
-10 -6 -15 -3 -5 4 -9 0 -9 -8 0 -22 -24 -27 -65 -16 -31 9 -39 8 -51 -8 -13
-17 -15 -17 -28 0 -12 15 -14 16 -20 2 -4 -11 -21 -15 -65 -15 -43 0 -60 -4
-65 -15 -3 -8 -9 -15 -13 -14 -4 1 -12 0 -18 -1 -5 -1 -36 -3 -68 -4 -37 -1
-61 -6 -66 -15 -7 -11 -10 -11 -15 0 -5 11 -7 11 -12 2 -3 -7 -19 -13 -35 -13
-16 0 -29 -5 -29 -10 0 -6 -6 -10 -12 -8 -7 1 -23 -4 -36 -11 -17 -9 -27 -9
-36 -2 -7 6 -16 8 -19 5 -3 -4 -24 -6 -47 -6 -27 1 -40 -4 -40 -13 0 -12 -67
-45 -92 -45 -6 0 -20 -8 -31 -18 -11 -9 -17 -11 -13 -4 5 8 1 19 -10 27 -16
11 -22 11 -36 -2 -9 -8 -21 -12 -27 -9 -5 3 -16 -1 -25 -10 -9 -8 -24 -14 -33
-13 -36 3 -54 -1 -47 -12 4 -8 -3 -9 -25 -4 -24 5 -37 2 -51 -10 -10 -9 -23
-14 -29 -11 -6 4 -19 -2 -31 -14 -13 -13 -33 -20 -56 -20 -19 0 -45 -5 -57
-11 -16 -9 -22 -9 -25 0 -5 16 -23 14 -38 -7 -7 -9 -14 -12 -14 -6 0 13 -47 0
-85 -23 -19 -12 -19 -12 3 -13 13 0 21 -4 18 -8 -3 -5 -32 -9 -66 -10 -37 -1
-76 -9 -102 -22 -28 -14 -44 -17 -49 -9 -4 7 -8 5 -13 -6 -3 -9 -10 -14 -15
-11 -5 4 -11 1 -13 -5 -6 -17 -78 -38 -110 -32 -18 4 -28 1 -28 -6 0 -7 -6
-18 -12 -24 -15 -14 -77 -37 -100 -37 -21 0 -99 -35 -93 -42 3 -3 -21 -15 -55
-28 -34 -13 -60 -28 -60 -36 0 -24 -46 -39 -74 -25 -34 19 -66 5 -73 -30 -3
-17 -12 -30 -22 -31 -9 0 -29 -3 -46 -4 -16 -2 -59 -6 -95 -8 -36 -3 -78 -9
-95 -14 -20 -7 641 -11 1953 -11 l1982 -1 0 1465 0 1465 -2930 0 -2930 0 0
-1465z m1328 1255 c1 -35 19 -63 35 -53 6 3 7 1 3 -5 -4 -7 -13 -12 -21 -12
-14 0 -30 -34 -21 -48 2 -4 1 -14 -4 -21 -5 -10 -10 -3 -15 20 -9 40 -19 49
-62 49 -48 0 -49 18 -1 18 48 1 68 17 71 59 3 39 14 34 15 -7z m3132 9 c0 -26
-28 -36 -46 -17 -14 13 -14 17 1 31 19 20 45 12 45 -14z m-4350 -64 c0 -18 7
-26 25 -31 14 -3 25 -9 25 -13 0 -4 -11 -18 -25 -31 -15 -14 -25 -35 -25 -51
0 -15 -5 -31 -10 -34 -6 -4 -10 -3 -9 2 6 35 -4 74 -25 94 l-24 23 21 11 c12
6 23 21 25 33 5 30 22 28 22 -3z m362 -17 c-15 -15 -26 -4 -18 18 5 13 9 15
18 6 9 -9 9 -15 0 -24z m2013 -108 c3 -5 -1 -10 -9 -10 -9 0 -16 5 -16 10 0 6
4 10 9 10 6 0 13 -4 16 -10z m2820 -40 c3 -5 -1 -10 -9 -10 -9 0 -16 5 -16 10
0 6 4 10 9 10 6 0 13 -4 16 -10z m-1385 -520 c0 -19 7 -34 20 -42 11 -7 20
-16 20 -20 0 -5 -9 -8 -20 -8 -15 0 -20 -7 -20 -25 0 -14 -4 -25 -10 -25 -5 0
-10 11 -10 24 0 21 -5 25 -37 28 l-38 4 30 8 c36 11 45 22 45 59 0 15 5 27 10
27 6 0 10 -13 10 -30z m-3748 -42 c-15 -15 -26 -4 -18 18 5 13 9 15 18 6 9 -9
9 -15 0 -24z m1313 -38 c3 -5 -1 -10 -9 -10 -9 0 -16 5 -16 10 0 6 4 10 9 10
6 0 13 -4 16 -10z m4197 -142 c-15 -15 -26 -4 -18 18 5 13 9 15 18 6 9 -9 9
-15 0 -24z m-3210 -10 c-15 -15 -26 -4 -18 18 5 13 9 15 18 6 9 -9 9 -15 0
-24z m2910 -178 c2 -25 10 -38 26 -45 26 -11 29 -25 6 -25 -10 0 -14 -6 -10
-15 3 -9 0 -15 -9 -15 -8 0 -15 -9 -15 -20 0 -30 -17 -24 -23 9 -4 18 -14 32
-27 36 -26 8 -25 19 5 43 18 14 25 30 25 53 0 43 17 26 22 -21z m-4677 -270
c3 -5 -1 -10 -9 -10 -9 0 -16 5 -16 10 0 6 4 10 9 10 6 0 13 -4 16 -10z m1305
-85 c0 -28 19 -45 50 -46 24 -1 24 -1 -7 -15 -20 -8 -35 -24 -39 -39 -8 -34
-20 -32 -27 5 -5 21 -12 30 -27 30 -26 0 -25 8 5 32 17 13 25 29 25 51 0 24 3
28 10 17 5 -8 10 -24 10 -35z m3085 -365 c3 -5 -1 -10 -10 -10 -9 0 -13 5 -10
10 3 6 8 10 10 10 2 0 7 -4 10 -10z m-211 -16 c4 -9 5 -18 4 -18 -45 -26 -108
-26 -108 0 0 12 33 20 63 15 4 0 7 4 7 9 0 16 27 11 34 -6z m99 9 c-7 -2 -21
-2 -30 0 -10 3 -4 5 12 5 17 0 24 -2 18 -5z m-10 -20 c-13 -2 -35 -2 -50 0
-16 2 -5 4 22 4 28 0 40 -2 28 -4z m-223 -18 c-7 -9 -15 -13 -17 -11 -7 7 7
26 19 26 6 0 6 -6 -2 -15z m-3746 -386 c-8 -14 -34 -11 -34 4 0 8 3 17 7 20 9
9 34 -13 27 -24z m4625 -147 c6 -20 6 -34 0 -38 -6 -3 -6 -10 -1 -17 15 -19
10 -47 -7 -47 -13 0 -16 14 -18 76 -2 78 9 88 26 26z m68 16 c-3 -8 -6 -5 -6
6 -1 11 2 17 5 13 3 -3 4 -12 1 -19z m-5563 -64 c8 -58 20 -74 57 -74 16 0 29
-4 29 -10 0 -5 -16 -10 -35 -10 -33 0 -35 -2 -35 -35 0 -19 -4 -35 -10 -35 -5
0 -10 11 -10 25 0 27 -25 45 -64 45 -14 0 -26 5 -26 10 0 6 11 10 23 10 39 0
59 31 51 79 -4 25 -3 41 3 41 6 0 13 -21 17 -46z m5586 37 c0 -6 -5 -13 -10
-16 -17 -10 -1 -24 22 -20 29 6 34 13 14 21 -9 3 -16 10 -16 15 0 14 24 0 38
-21 11 -18 9 -22 -27 -36 -30 -12 -38 -19 -34 -35 3 -10 1 -19 -5 -19 -5 0 -9
18 -8 40 1 22 -2 40 -6 40 -5 0 -4 9 2 20 11 21 30 27 30 11z m-171 -82 c11
-18 17 -38 14 -45 -3 -8 1 -14 11 -14 10 0 13 5 9 17 -4 11 -3 14 5 9 7 -4 12
-1 13 6 0 10 2 10 6 1 2 -7 11 -13 19 -13 8 0 14 -5 14 -11 0 -5 5 -7 10 -4 6
3 10 1 10 -4 0 -6 -7 -11 -15 -11 -12 0 -14 -4 -5 -19 5 -11 6 -22 1 -25 -4
-3 -13 6 -20 20 l-11 26 -18 -22 c-13 -17 -24 -21 -40 -16 -28 9 -47 42 -30
52 7 4 8 3 4 -4 -10 -17 42 -48 57 -33 6 6 8 12 4 12 -4 1 -10 2 -14 3 -18 3
-33 18 -28 27 9 13 -5 50 -15 44 -5 -3 -7 -12 -3 -20 3 -8 1 -15 -4 -15 -8 0
-10 21 -4 63 2 14 12 7 30 -24z m217 -79 c19 4 34 4 34 -1 0 -10 -2 -10 -45
-13 -16 0 -35 -8 -42 -16 -11 -13 -12 -13 -13 0 -1 8 -3 23 -5 32 -3 16 -1 16
16 4 14 -9 31 -11 55 -6z m-3541 -40 c-3 -5 -12 -7 -20 -3 -21 7 -19 13 6 13
11 0 18 -4 14 -10z m90 -10 c-3 -5 -11 -10 -16 -10 -6 0 -7 5 -4 10 3 6 11 10
16 10 6 0 7 -4 4 -10z"/>
<path d="M5610 210 c0 -5 5 -10 11 -10 5 0 7 5 4 10 -3 6 -8 10 -11 10 -2 0
-4 -4 -4 -10z"/>
<path d="M2613 303 c-20 -8 -15 -23 7 -23 11 0 20 7 20 15 0 15 -6 17 -27 8z"/>
<path d="M1870 10 c-13 -8 -12 -10 3 -10 9 0 17 5 17 10 0 12 -1 12 -20 0z"/>
</g>
</svg>
